<svg width="129" height="27" viewBox="0 0 129 27" fill="none" xmlns="http://www.w3.org/2000/svg">
<path d="M9.80662 0.112994C5.46753 0.552228 2.20721 2.01238 1.24829 3.92364L0.936646 4.54094V13.2069C0.936646 21.4455 0.948632 21.9085 1.16439 22.3715C2.00344 24.1877 4.79628 25.5885 8.73983 26.1584C10.4659 26.3958 14.6611 26.3958 16.3872 26.1584C19.4677 25.7073 21.829 24.7813 23.1116 23.4992C24.2503 22.3715 24.1904 22.965 24.1904 13.1001V4.54094L23.8787 3.92364C22.8838 1.95303 19.6955 0.564099 15.0927 0.101123C13.6663 -0.0413311 11.281 -0.0294599 9.80662 0.112994ZM16.7588 1.98864C19.204 2.416 20.978 3.14014 21.9129 4.07797C23.5071 5.68058 21.9729 7.46125 18.1732 8.41095C16.3153 8.87392 14.781 9.04012 12.3837 9.02825C7.54118 9.01638 3.64558 7.79365 2.75859 6.01297C2.51886 5.53812 2.49489 5.39567 2.60276 5.00392C2.7466 4.46972 3.39387 3.78119 4.13703 3.34195C5.28773 2.67717 7.57714 2.03613 9.80662 1.76309C11.3169 1.58502 15.1885 1.70373 16.7588 1.98864ZM3.70552 8.98076C4.90416 9.58619 6.42644 10.061 8.18845 10.3816C9.6508 10.6427 13.8341 10.7377 15.5721 10.5478C18.0893 10.2747 20.5465 9.57432 21.829 8.76708C22.1407 8.57714 22.4643 8.41095 22.5362 8.41095C22.6201 8.41095 22.6441 8.90954 22.6082 9.98981C22.5722 11.3669 22.5362 11.6162 22.2965 11.996C21.6253 13.0763 19.5396 14.0141 16.6988 14.5365C15.0687 14.8333 11.1851 14.8926 9.3871 14.6552C6.94186 14.3347 5.08396 13.7648 3.86134 12.9695C2.68667 12.1979 2.50687 11.7942 2.49489 9.79988C2.49489 9.04012 2.51886 8.41095 2.53084 8.41095C2.55482 8.41095 3.08222 8.67211 3.70552 8.98076ZM4.23292 14.1447C5.51547 14.7858 7.48125 15.2725 9.79464 15.5337C11.3649 15.7236 15.2125 15.6286 16.6988 15.3675C18.8684 14.9995 20.7982 14.3228 21.889 13.5512C22.2006 13.3375 22.5003 13.1594 22.5602 13.1594C22.6082 13.1594 22.6441 13.9192 22.6201 14.8451C22.5722 16.3409 22.5362 16.5902 22.3085 16.9701C21.6133 18.0741 19.4677 19.0119 16.4591 19.5342C14.9488 19.7835 10.4779 19.8191 9.0275 19.5936C5.43157 19.0119 2.99832 17.8367 2.62674 16.519C2.55482 16.2697 2.49489 15.3912 2.49489 14.5602V13.0407L3.07023 13.4443C3.38188 13.658 3.90929 13.9785 4.23292 14.1447ZM2.97434 18.3234C3.33394 18.7033 4.9641 19.4868 6.03089 19.7835C10.1662 20.9707 15.7519 20.8994 19.6115 19.6292C20.6424 19.2849 21.865 18.6439 22.2006 18.2759C22.3325 18.1334 22.4763 18.0266 22.5362 18.0266C22.6801 18.0266 22.6561 20.8519 22.5003 21.3861C21.8171 23.8197 15.2724 25.3749 9.1234 24.5439C5.65931 24.0809 2.84249 22.7038 2.5668 21.3387C2.45893 20.7807 2.4829 18.0266 2.59078 18.0266C2.65071 18.0266 2.81852 18.1572 2.97434 18.3234Z" fill="black"/>
<path d="M19.4797 10.9993C19.216 11.2961 19.228 11.8897 19.4917 12.1271C19.9951 12.59 20.8702 12.222 20.8702 11.5573C20.8702 10.8806 19.9232 10.5126 19.4797 10.9993Z" fill="black"/>
<path d="M19.5875 15.902C19.204 16.1987 19.168 16.7329 19.5156 17.0772C20.1629 17.7183 21.2057 16.9466 20.7742 16.1394C20.6303 15.8545 20.3067 15.6645 19.9831 15.6527C19.9351 15.6527 19.7673 15.7595 19.5875 15.902Z" fill="black"/>
<path d="M19.5156 20.8758C19.0242 21.3625 19.3718 22.3003 20.043 22.3003C20.4985 22.3003 20.8701 21.9204 20.8701 21.4693C20.8701 20.7452 20.0191 20.3772 19.5156 20.8758Z" fill="black"/>
<path d="M52.838 8.28028C51.4116 8.71952 50.6804 9.62173 50.6804 10.9276C50.6924 12.2096 51.4595 12.9813 53.5092 13.7054C55.1154 14.2871 55.475 14.5839 55.475 15.3436C55.475 16.044 55.2352 16.412 54.6239 16.6495C53.7489 16.9937 52.5982 16.8157 51.6873 16.1984L51.2198 15.8778L50.7763 16.3527C50.5246 16.6139 50.3208 16.875 50.3208 16.9462C50.3208 17.1243 51.3636 17.7535 52.0469 17.9909C52.8739 18.2758 54.6 18.2758 55.415 17.9909C56.7575 17.5398 57.4408 16.602 57.4408 15.2368C57.4408 13.6342 56.7815 12.9931 54.2883 12.1384C53.1017 11.7348 52.5982 11.3312 52.5982 10.7851C52.5982 10.0016 53.1376 9.59799 54.1924 9.59799C54.6719 9.59799 55.0195 9.69295 55.5829 9.96599L56.326 10.334L56.7336 9.88289C56.9613 9.62173 57.1411 9.3843 57.1531 9.32495C57.1531 9.17062 56.0383 8.52958 55.427 8.35151C54.8037 8.16157 53.3534 8.12596 52.838 8.28028Z" fill="black"/>
<path d="M105.818 8.36343C104.595 8.80266 103.768 9.65738 103.277 10.9988C102.905 12.0197 102.893 14.3465 103.277 15.4149C103.864 17.1006 105.111 18.0859 106.849 18.2284C108.551 18.3708 110.025 17.6229 110.78 16.2459C111.272 15.3437 111.452 14.5602 111.452 13.2187C111.452 10.7614 110.697 9.28938 109.066 8.55336C108.203 8.16162 106.645 8.06665 105.818 8.36343ZM108.419 9.90668C108.611 10.0373 108.911 10.4409 109.09 10.8089C109.714 12.0197 109.666 14.667 109.018 15.8423C108.395 16.9582 106.609 17.1718 105.734 16.234C105.087 15.5336 104.775 13.8835 104.979 12.2334C105.147 10.8801 105.518 10.2153 106.357 9.72861C106.729 9.51493 108.036 9.62177 108.419 9.90668Z" fill="black"/>
<path d="M124.397 8.28028C122.971 8.71952 122.24 9.62173 122.24 10.9276C122.252 12.2096 123.019 12.9813 125.069 13.7054C126.675 14.2871 127.034 14.5839 127.034 15.3436C127.034 16.044 126.795 16.412 126.183 16.6495C125.308 16.9937 124.158 16.8157 123.247 16.1984L122.779 15.8778L122.336 16.3527C122.084 16.6139 121.88 16.875 121.88 16.9462C121.88 17.1243 122.923 17.7535 123.606 17.9909C124.433 18.2758 126.159 18.2758 126.974 17.9909C128.317 17.5398 129 16.602 129 15.2368C129 13.6342 128.341 12.9931 125.848 12.1384C124.661 11.7348 124.158 11.3312 124.158 10.7851C124.158 10.0016 124.697 9.59799 125.752 9.59799C126.231 9.59799 126.579 9.69295 127.142 9.96599L127.885 10.334L128.293 9.88289C128.521 9.62173 128.7 9.3843 128.712 9.32495C128.712 9.17062 127.598 8.52958 126.986 8.35151C126.363 8.16157 124.913 8.12596 124.397 8.28028Z" fill="black"/>
<path d="M26.7075 13.219V18.0269H27.6065H28.5055V16.3886V14.7385L29.6802 14.6673C31.562 14.5486 32.5329 14.0856 33.1203 13.0053C33.4079 12.4949 33.4679 12.2575 33.4679 11.4977C33.4799 9.95445 32.8446 9.08786 31.3583 8.63675C30.7829 8.45869 30.2555 8.4112 28.6733 8.4112H26.7075V13.219ZM30.4353 9.84761C30.687 9.93071 31.0226 10.1207 31.1665 10.275C31.4062 10.5243 31.4422 10.6905 31.4422 11.4977C31.4422 12.3168 31.4062 12.4593 31.1545 12.7323C30.7949 13.1122 30.2196 13.2784 29.2606 13.2784H28.5055V11.4977V9.71703H29.2367C29.6442 9.71703 30.1836 9.77639 30.4353 9.84761Z" fill="black"/>
<path d="M34.9781 13.2072V18.0269H35.9371H36.896V16.0681V14.1094H37.4713H38.0347L39.1135 16.0325L40.1923 17.9675L41.2471 18.0031C41.8224 18.015 42.2899 18.0031 42.2899 17.9675C42.2899 17.92 41.7385 16.9703 41.0673 15.8544C40.2642 14.5367 39.8926 13.8126 39.9885 13.777C40.408 13.6464 41.283 12.9222 41.4748 12.5424C41.6067 12.3049 41.7385 11.8182 41.7745 11.4621C41.8943 10.2512 41.3669 9.28967 40.2642 8.77921C39.6289 8.48243 39.4851 8.47056 37.2915 8.43494L34.9781 8.38746V13.2072ZM38.8018 9.83574C39.6768 10.085 40.0604 10.8685 39.7488 11.7945C39.497 12.5305 38.9936 12.8035 37.8429 12.8035H36.896V11.2603V9.71703H37.6511C38.0587 9.71703 38.5741 9.76452 38.8018 9.83574Z" fill="black"/>
<path d="M43.6084 13.219V18.0269H46.4851H49.3619V17.3146V16.6023H47.4441H45.5262V15.2371V13.8719H47.0845H48.6427V13.1597V12.4474H47.0845H45.5262V11.0822V9.71703H47.3242H49.1102L49.1821 9.26593C49.2181 9.0285 49.278 8.73172 49.302 8.61301C49.3379 8.42307 49.1342 8.4112 46.4732 8.4112H43.6084V13.219Z" fill="black"/>
<path d="M59.0709 13.219V18.0269H61.9477H64.8364L64.8004 17.3383L64.7645 16.6617L62.8826 16.6261L60.9888 16.5904V15.2371V13.8838L62.523 13.8482L64.0453 13.8126L64.0813 13.1241L64.1172 12.4474H62.547H60.9888V11.0822V9.71703H62.7747H64.5487L64.6326 9.26593C64.7885 8.3281 65.0282 8.4112 61.8877 8.4112H59.0709V13.219Z" fill="black"/>
<path d="M66.6224 13.219V18.0269H67.4735H68.3365L68.2526 14.6673C68.2166 12.8273 68.1447 11.106 68.1207 10.8448C68.0728 10.5599 68.6961 11.8538 69.703 14.1925L71.3571 18.0269H72.5917H73.8143V13.219V8.4112H72.9633H72.1122L72.1482 12.1269L72.1961 15.8426L71.2252 13.6464C70.6978 12.4355 69.9786 10.7617 69.6191 9.91884L68.9718 8.4112H67.7971H66.6224V13.219Z" fill="black"/>
<path d="M75.1328 9.12347V9.83574H76.4513H77.7698V13.9313V18.0269H78.6688H79.5678V13.9313V9.83574H80.8743H82.1689L82.2528 9.28967C82.2887 8.98102 82.3247 8.6605 82.3247 8.5774C82.3247 8.43494 81.6774 8.4112 78.7287 8.4112H75.1328V9.12347Z" fill="black"/>
<path d="M83.9068 13.1241C83.1037 15.7238 82.4325 17.8844 82.4445 17.9319C82.4445 17.9912 82.864 18.0269 83.3794 18.0269H84.3144L84.6021 16.9228L84.9017 15.8307L86.5319 15.7951L88.162 15.7595L88.4377 16.8991L88.7254 18.0269H89.7203C90.2717 18.0269 90.7151 18.015 90.7151 17.9912C90.7151 17.9794 90.0439 15.8307 89.2288 13.219L87.7425 8.47056L86.5678 8.43494L85.3812 8.4112L83.9068 13.1241ZM87.1072 11.9488C87.3949 13.041 87.6586 14.0263 87.6946 14.1331C87.7425 14.323 87.6346 14.3468 86.5199 14.3468C85.4051 14.3468 85.2973 14.323 85.3452 14.1331C85.3812 14.0263 85.6449 13.041 85.9326 11.9488C86.2202 10.8448 86.4839 9.95445 86.5199 9.95445C86.5558 9.95445 86.8196 10.8448 87.1072 11.9488Z" fill="black"/>
<path d="M90.8351 9.12347V9.83574H92.1536H93.4721V13.9313V18.0269H94.431H95.3899V13.9313V9.83574H96.6485C97.5715 9.83574 97.9071 9.80013 97.9191 9.68142C97.9191 9.61019 97.967 9.28967 98.015 8.96915L98.1109 8.4112H94.467H90.8351V9.12347Z" fill="black"/>
<path d="M99.3455 13.219V18.0269H100.244H101.143V13.219V8.4112H100.244H99.3455V13.219Z" fill="black"/>
<path d="M113.25 13.2184V18.0262H114.101H114.952L114.904 14.4292C114.868 12.4586 114.796 10.7373 114.748 10.6067C114.688 10.4761 114.688 10.4049 114.748 10.4524C114.796 10.4999 115.551 12.2093 116.426 14.2512L118.02 17.9669L119.231 18.0025L120.442 18.0381V13.2184V8.41056H119.603H118.764V11.1053C118.764 12.6011 118.823 14.2868 118.883 14.8804C118.943 15.462 118.979 15.9488 118.967 15.9725C118.943 15.9844 118.2 14.2987 117.301 12.2331L115.659 8.46992L114.46 8.4343L113.25 8.39869V13.2184Z" fill="black"/>
</svg>
