<?xml version="1.0" standalone="no"?>
<!DOCTYPE svg PUBLIC "-//W3C//DTD SVG 20010904//EN"
 "http://www.w3.org/TR/2001/REC-SVG-20010904/DTD/svg10.dtd">
<svg version="1.0" xmlns="http://www.w3.org/2000/svg"
 width="1200.000000pt" height="222.000000pt" viewBox="0 0 1200.000000 222.000000"
 preserveAspectRatio="xMidYMid meet">

<g transform="translate(0.000000,222.000000) scale(0.100000,-0.100000)"
fill="#000000" stroke="none">
<path d="M960 2209 c-362 -37 -634 -160 -714 -321 l-26 -52 0 -730 c0 -694 1
-733 19 -772 70 -153 303 -271 632 -319 144 -20 494 -20 638 0 257 38 454 116
561 224 95 95 90 45 90 876 l0 721 -26 52 c-83 166 -349 283 -733 322 -119 12
-318 11 -441 -1z m580 -158 c204 -36 352 -97 430 -176 133 -135 5 -285 -312
-365 -155 -39 -283 -53 -483 -52 -404 1 -729 104 -803 254 -20 40 -22 52 -13
85 12 45 66 103 128 140 96 56 287 110 473 133 126 15 449 5 580 -19z m-1089
-589 c100 -51 227 -91 374 -118 122 -22 471 -30 616 -14 210 23 415 82 522
150 26 16 53 30 59 30 7 0 9 -42 6 -133 -3 -116 -6 -137 -26 -169 -56 -91
-230 -170 -467 -214 -136 -25 -460 -30 -610 -10 -204 27 -359 75 -461 142 -98
65 -113 99 -114 267 0 64 2 117 3 117 2 0 46 -22 98 -48z m44 -435 c107 -54
271 -95 464 -117 131 -16 452 -8 576 14 181 31 342 88 433 153 26 18 51 33 56
33 4 0 7 -64 5 -142 -4 -126 -7 -147 -26 -179 -58 -93 -237 -172 -488 -216
-126 -21 -499 -24 -620 -5 -300 49 -503 148 -534 259 -6 21 -11 95 -11 165 l0
128 48 -34 c26 -18 70 -45 97 -59z m-105 -352 c30 -32 166 -98 255 -123 345
-100 811 -94 1133 13 86 29 188 83 216 114 11 12 23 21 28 21 12 0 10 -238 -3
-283 -57 -205 -603 -336 -1116 -266 -289 39 -524 155 -547 270 -9 47 -7 279 2
279 5 0 19 -11 32 -25z"/>
<path d="M1767 1292 c-22 -25 -21 -75 1 -95 42 -39 115 -8 115 48 0 57 -79 88
-116 47z"/>
<path d="M1776 879 c-32 -25 -35 -70 -6 -99 54 -54 141 11 105 79 -12 24 -39
40 -66 41 -4 0 -18 -9 -33 -21z"/>
<path d="M1770 460 c-41 -41 -12 -120 44 -120 38 0 69 32 69 70 0 61 -71 92
-113 50z"/>
<path d="M4550 1521 c-119 -37 -180 -113 -180 -223 1 -108 65 -173 236 -234
134 -49 164 -74 164 -138 0 -59 -20 -90 -71 -110 -73 -29 -169 -14 -245 38
l-39 27 -37 -40 c-21 -22 -38 -44 -38 -50 0 -15 87 -68 144 -88 69 -24 213
-24 281 0 112 38 169 117 169 232 0 135 -55 189 -263 261 -99 34 -141 68 -141
114 0 66 45 100 133 100 40 0 69 -8 116 -31 l62 -31 34 38 c19 22 34 42 35 47
0 13 -93 67 -144 82 -52 16 -173 19 -216 6z"/>
<path d="M8970 1514 c-102 -37 -171 -109 -212 -222 -31 -86 -32 -282 0 -372
49 -142 153 -225 298 -237 142 -12 265 51 328 167 41 76 56 142 56 255 0 207
-63 331 -199 393 -72 33 -202 41 -271 16z m217 -130 c16 -11 41 -45 56 -76 52
-102 48 -325 -6 -424 -52 -94 -201 -112 -274 -33 -54 59 -80 198 -63 337 14
114 45 170 115 211 31 18 140 9 172 -15z"/>
<path d="M10520 1521 c-119 -37 -180 -113 -180 -223 1 -108 65 -173 236 -234
134 -49 164 -74 164 -138 0 -59 -20 -90 -71 -110 -73 -29 -169 -14 -245 38
l-39 27 -37 -40 c-21 -22 -38 -44 -38 -50 0 -15 87 -68 144 -88 69 -24 213
-24 281 0 112 38 169 117 169 232 0 135 -55 189 -263 261 -99 34 -141 68 -141
114 0 66 45 100 133 100 40 0 69 -8 116 -31 l62 -31 34 38 c19 22 34 42 35 47
0 13 -93 67 -144 82 -52 16 -173 19 -216 6z"/>
<path d="M2370 1105 l0 -405 75 0 75 0 0 138 0 139 98 6 c157 10 238 49 287
140 24 43 29 63 29 127 1 130 -52 203 -176 241 -48 15 -92 19 -224 19 l-164 0
0 -405z m311 284 c21 -7 49 -23 61 -36 20 -21 23 -35 23 -103 0 -69 -3 -81
-24 -104 -30 -32 -78 -46 -158 -46 l-63 0 0 150 0 150 61 0 c34 0 79 -5 100
-11z"/>
<path d="M3060 1106 l0 -406 80 0 80 0 0 165 0 165 48 0 47 0 90 -162 90 -163
88 -3 c48 -1 87 0 87 3 0 4 -46 84 -102 178 -67 111 -98 172 -90 175 35 11
108 72 124 104 11 20 22 61 25 91 10 102 -34 183 -126 226 -53 25 -65 26 -248
29 l-193 4 0 -406z m319 284 c73 -21 105 -87 79 -165 -21 -62 -63 -85 -159
-85 l-79 0 0 130 0 130 63 0 c34 0 77 -4 96 -10z"/>
<path d="M3780 1105 l0 -405 240 0 240 0 0 60 0 60 -160 0 -160 0 0 115 0 115
130 0 130 0 0 60 0 60 -130 0 -130 0 0 115 0 115 150 0 149 0 6 38 c3 20 8 45
10 55 3 16 -14 17 -236 17 l-239 0 0 -405z"/>
<path d="M5070 1105 l0 -405 240 0 241 0 -3 58 -3 57 -157 3 -158 3 0 114 0
114 128 3 127 3 3 58 3 57 -131 0 -130 0 0 115 0 115 149 0 148 0 7 38 c13 79
33 72 -229 72 l-235 0 0 -405z"/>
<path d="M5700 1105 l0 -405 71 0 72 0 -7 283 c-3 155 -9 300 -11 322 -4 24
48 -85 132 -282 l138 -323 103 0 102 0 0 405 0 405 -71 0 -71 0 3 -313 4 -313
-81 185 c-44 102 -104 243 -134 314 l-54 127 -98 0 -98 0 0 -405z"/>
<path d="M6410 1450 l0 -60 110 0 110 0 0 -345 0 -345 75 0 75 0 0 345 0 345
109 0 108 0 7 46 c3 26 6 53 6 60 0 12 -54 14 -300 14 l-300 0 0 -60z"/>
<path d="M7142 1113 c-67 -219 -123 -401 -122 -405 0 -5 35 -8 78 -8 l78 0 24
93 25 92 136 3 136 3 23 -96 24 -95 83 0 c46 0 83 1 83 3 0 1 -56 182 -124
402 l-124 400 -98 3 -99 2 -123 -397z m267 99 c24 -92 46 -175 49 -184 4 -16
-5 -18 -98 -18 -93 0 -102 2 -98 18 3 9 25 92 49 184 24 93 46 168 49 168 3 0
25 -75 49 -168z"/>
<path d="M7720 1450 l0 -60 110 0 110 0 0 -345 0 -345 80 0 80 0 0 345 0 345
105 0 c77 0 105 3 106 13 0 6 4 33 8 60 l8 47 -304 0 -303 0 0 -60z"/>
<path d="M8430 1105 l0 -405 75 0 75 0 0 405 0 405 -75 0 -75 0 0 -405z"/>
<path d="M9590 1105 l0 -405 71 0 71 0 -4 303 c-3 166 -9 311 -13 322 -5 11
-5 17 0 13 4 -4 67 -148 140 -320 l133 -313 101 -3 101 -3 0 406 0 405 -70 0
-70 0 0 -227 c0 -126 5 -268 10 -318 5 -49 8 -90 7 -92 -2 -1 -64 141 -139
315 l-137 317 -100 3 -101 3 0 -406z"/>
</g>
</svg>
