<svg xmlns="http://www.w3.org/2000/svg" version="1.1" xmlns:xlink="http://www.w3.org/1999/xlink" xmlns:svgjs="http://svgjs.dev/svgjs" width="1000" height="1000" viewBox="0 0 1000 1000"><rect width="1000" height="1000" fill="#000000"></rect><g transform="matrix(0.7,0,0,0.7,149.57575757575756,422.5753978398024)"><svg viewBox="0 0 396 88" data-background-color="#ffffff" preserveAspectRatio="xMidYMid meet" height="222" width="1000" xmlns="http://www.w3.org/2000/svg" xmlns:xlink="http://www.w3.org/1999/xlink"><g id="tight-bounds" transform="matrix(1,0,0,1,0.2400000000000091,-0.15595244467573366)"><svg viewBox="0 0 395.52 88.31190488935147" height="88.31190488935147" width="395.52"><g><svg viewBox="0 0 504.17120148882987 112.57159990349818" height="88.31190488935147" width="395.52"><g transform="matrix(1,0,0,1,108.65120148882991,34.78625833534379)"><svg viewBox="0 0 395.52 42.99908323281061" height="42.99908323281061" width="395.52"><g><svg viewBox="0 0 395.52 42.99908323281061" height="42.99908323281061" width="395.52"><g><svg viewBox="0 0 395.52 42.99908323281061" height="42.99908323281061" width="395.52"><g transform="matrix(1,0,0,1,0,0)"><svg width="395.52" viewBox="4.050000190734863 -35.29999923706055 331.57000732421875 36.04999923706055" height="42.99908323281061" data-palette-color="#89939e"><path d="M14.25-34.55Q20.9-34.55 24.58-31.8 28.25-29.05 28.25-23.55L28.25-23.55Q28.25-17.8 24.55-14.93 20.85-12.05 14.7-12.05L14.7-12.05 10.65-12.05 10.65 0 4.05 0 4.05-34.55 14.25-34.55ZM14.2-17Q17.75-17 19.55-18.48 21.35-19.95 21.35-23.55L21.35-23.55Q21.35-29.7 14.2-29.7L14.2-29.7 10.65-29.7 10.65-17 14.2-17ZM52.05 0L44.4-13.85 40.2-13.85 40.2 0 33.6 0 33.6-34.55 43.9-34.55Q57.6-34.55 57.6-24.4L57.6-24.4Q57.6-20.95 55.9-18.7 54.2-16.45 50.6-15.05L50.6-15.05 59.65 0 52.05 0ZM40.2-29.75L40.2-18.6 44.3-18.6Q47.45-18.6 49.07-19.98 50.7-21.35 50.7-24.4L50.7-24.4Q50.7-27.2 49.02-28.48 47.35-29.75 43.75-29.75L43.75-29.75 40.2-29.75ZM64.14-34.55L84.19-34.55 83.5-29.65 70.75-29.65 70.75-20 81.84-20 81.84-15.1 70.75-15.1 70.75-4.95 84.39-4.95 84.39 0 64.14 0 64.14-34.55ZM100.59-35.3Q104.24-35.3 106.94-34.25 109.64-33.2 111.99-31.05L111.99-31.05 108.74-27.3Q106.89-28.85 105.02-29.55 103.14-30.25 100.99-30.25L100.99-30.25Q98.59-30.25 97.12-29.18 95.64-28.1 95.64-26.15L95.64-26.15Q95.64-24.85 96.22-24 96.79-23.15 98.29-22.4 99.79-21.65 102.74-20.75L102.74-20.75Q107.84-19.15 110.42-16.78 112.99-14.4 112.99-9.85L112.99-9.85Q112.99-6.75 111.42-4.35 109.84-1.95 106.89-0.6 103.94 0.75 99.89 0.75L99.89 0.75Q95.94 0.75 92.82-0.53 89.69-1.8 87.44-4L87.44-4 90.84-7.8Q92.84-6.1 94.99-5.23 97.14-4.35 99.74-4.35L99.74-4.35Q102.59-4.35 104.34-5.7 106.09-7.05 106.09-9.5L106.09-9.5Q106.09-11 105.49-11.98 104.89-12.95 103.44-13.73 101.99-14.5 99.24-15.35L99.24-15.35Q93.74-17.05 91.29-19.45 88.84-21.85 88.84-25.75L88.84-25.75Q88.84-28.6 90.34-30.75 91.84-32.9 94.52-34.1 97.19-35.3 100.59-35.3L100.59-35.3ZM118.64-34.55L138.69-34.55 137.99-29.65 125.24-29.65 125.24-20 136.34-20 136.34-15.1 125.24-15.1 125.24-4.95 138.89-4.95 138.89 0 118.64 0 118.64-34.55ZM170.64-34.55L170.64 0 162.09 0 150.24-27.95Q150.69-24.25 150.91-21.25 151.14-18.25 151.14-14.1L151.14-14.1 151.14 0 145.14 0 145.14-34.55 153.49-34.55 165.54-6.55Q165.24-8.55 164.94-11.83 164.64-15.1 164.64-18.35L164.64-18.35 164.64-34.55 170.64-34.55ZM175.28-34.55L200.94-34.55 200.24-29.3 191.24-29.3 191.24 0 184.59 0 184.59-29.3 175.28-29.3 175.28-34.55ZM230.53 0L223.53 0 221.38-8 209.93-8 207.78 0 200.93 0 211.68-34.55 219.83-34.55 230.53 0ZM215.63-29.5L211.23-13 220.03-13 215.63-29.5ZM230.93-34.55L256.58-34.55 255.88-29.3 246.88-29.3 246.88 0 240.23 0 240.23-29.3 230.93-29.3 230.93-34.55ZM260.88-34.55L267.48-34.55 267.48 0 260.88 0 260.88-34.55ZM288.83-35.3Q293.48-35.3 296.88-33.2 300.28-31.1 302.1-27.05 303.93-23 303.93-17.3L303.93-17.3Q303.93-11.65 302.08-7.6 300.23-3.55 296.83-1.4 293.43 0.75 288.83 0.75L288.83 0.75Q284.18 0.75 280.78-1.35 277.38-3.45 275.53-7.5 273.68-11.55 273.68-17.25L273.68-17.25Q273.68-22.85 275.53-26.93 277.38-31 280.8-33.15 284.23-35.3 288.83-35.3L288.83-35.3ZM288.83-30.25Q284.83-30.25 282.73-27.13 280.63-24 280.63-17.25L280.63-17.25Q280.63-4.3 288.83-4.3L288.83-4.3Q292.83-4.3 294.9-7.4 296.98-10.5 296.98-17.3L296.98-17.3Q296.98-24.05 294.9-27.15 292.83-30.25 288.83-30.25L288.83-30.25ZM335.62-34.55L335.62 0 327.07 0 315.22-27.95Q315.67-24.25 315.9-21.25 316.12-18.25 316.12-14.1L316.12-14.1 316.12 0 310.12 0 310.12-34.55 318.47-34.55 330.52-6.55Q330.22-8.55 329.92-11.83 329.62-15.1 329.62-18.35L329.62-18.35 329.62-34.55 335.62-34.55Z" opacity="1" transform="matrix(1,0,0,1,0,0)" fill="#ffffff" class="undefined-text-0" data-fill-palette-color="primary" id="text-0"></path></svg></g></svg></g></svg></g></svg></g><g><svg viewBox="0 0 98.50014991556091 112.57159990349818" height="112.57159990349818" width="98.50014991556091"><g><svg xmlns="http://www.w3.org/2000/svg" xmlns:xlink="http://www.w3.org/1999/xlink" version="1.1" x="0" y="0" viewBox="2 0 28 32" enable-background="new 0 0 32 32" xml:space="preserve" height="112.57159990349818" width="98.50014991556091" class="icon-icon-0" data-fill-palette-color="accent" id="icon-0"><g fill="#89939e" data-fill-palette-color="accent"><path fill="#ffffff" d="M16 0C9.256 0 2 2.033 2 6.5v19C2 29.965 9.256 32 16 32c6.743 0 14-2.035 14-6.5v-19C30 2.033 22.742 0 16 0zM28 25.5c0 2.484-5.373 4.5-12 4.5-6.628 0-12-2.016-12-4.5v-3.736C6.066 23.893 11.05 25 16 25c4.95 0 9.934-1.107 12-3.236V25.5zM28 19.5h-0.004c0 0.01 0.004 0.021 0.004 0.031C28 22 22.627 24 16 24c-6.627 0-12-2-12-4.469 0-0.01 0.004-0.021 0.004-0.031H4v-3.736C6.066 17.893 11.05 19 16 19c4.95 0 9.934-1.107 12-3.236V19.5zM28 13.5h-0.004c0 0.01 0.004 0.021 0.004 0.031C28 16 22.627 18 16 18c-6.627 0-12-2-12-4.469 0-0.01 0.004-0.021 0.004-0.031H4v-3.436C6.621 12.061 11.425 13 16 13c4.575 0 9.379-0.939 12-2.936V13.5zM16 11C9.372 11 4 8.984 4 6.5 4 4.014 9.372 2 16 2c6.627 0 12 2.014 12 4.5C28 8.984 22.627 11 16 11z" data-fill-palette-color="accent"></path><circle fill="#ffffff" cx="25" cy="26" r="1.0" data-fill-palette-color="accent"></circle><circle fill="#ffffff" cx="25" cy="20" r="1.0" data-fill-palette-color="accent"></circle><circle fill="#ffffff" cx="25" cy="14" r="1.0" data-fill-palette-color="accent"></circle></g></svg></g></svg></g></svg></g><defs></defs></svg><rect width="395.52" height="88.31190488935147" fill="none" stroke="none" visibility="hidden"></rect></g></svg></g></svg>